<svg width="19" height="26" viewBox="0 0 19 26" fill="none" xmlns="http://www.w3.org/2000/svg">
<path fill-rule="evenodd" clip-rule="evenodd" d="M14.2865 1.60139C13.7398 0.865283 12.9151 0.651499 12.2044 1.06157L5.20482 5.10017C4.37807 5.57719 3.74064 6.50594 3.45805 7.65979C2.79471 10.3683 1.93651 13.9469 1.24363 17.006C0.897397 18.5347 0.590979 19.9402 0.370591 21.0448C0.260533 21.5964 0.17037 22.0808 0.107252 22.4716C0.048471 22.8359 0 23.1945 0 23.453V23.8045L1.62995 25.9988H1.89103C2.08313 25.9988 2.34952 25.9337 2.61998 25.8546C2.91039 25.7695 3.27017 25.6482 3.6799 25.5C4.50038 25.2033 5.5443 24.7907 6.67979 24.3247C8.95205 23.3919 11.6102 22.2364 13.6221 21.3435C14.4791 20.9629 15.169 20.1048 15.5234 18.9918L18.5232 9.56835C18.8278 8.61152 18.6689 7.5014 18.1222 6.76529L14.2865 1.60139ZM12.7011 2.62159C12.938 2.48489 13.2128 2.55616 13.3951 2.80153L17.2307 7.96543C17.413 8.2108 17.466 8.58083 17.3644 8.89977L14.3645 18.3232C14.1515 18.9925 13.7382 19.5047 13.2273 19.7314C11.22 20.6225 8.5717 21.7735 6.3121 22.7011C5.18165 23.1653 4.15328 23.5714 3.35287 23.8608C2.95217 24.0058 2.61435 24.1193 2.35223 24.196C2.29681 24.2121 2.24565 24.2266 2.19873 24.239L8.63982 15.5674C9.34273 16.0196 10.2101 15.8536 10.7923 15.0698C11.5308 14.0756 11.5308 12.4637 10.7923 11.4694C10.0538 10.4752 8.85651 10.4752 8.11801 11.4694C7.5358 12.2532 7.41259 13.4211 7.74837 14.3673L1.30723 23.0388C1.3165 22.9757 1.32713 22.9068 1.33918 22.8321C1.39615 22.4793 1.48049 22.0244 1.58813 21.485C1.80311 20.4074 2.10481 19.023 2.44951 17.5011C3.13852 14.459 3.99349 10.8936 4.65534 8.19124C4.82379 7.50344 5.20424 6.94705 5.70143 6.66018L12.7011 2.62159Z" fill="#5221E6"/>
</svg>
